<?xml version="1.0" encoding="UTF-8"?>
<svg xmlns="http://www.w3.org/2000/svg" xmlns:xlink="http://www.w3.org/1999/xlink" viewBox="0 0 604.38 503.54">
  <defs>
    <style>
      .cls-1 {
        fill: url(#linear-gradient-3);
      }

      .cls-1, .cls-2, .cls-3, .cls-4 {
        mix-blend-mode: multiply;
      }

      .cls-5 {
        fill: url(#linear-gradient-2);
      }

      .cls-2 {
        fill: url(#linear-gradient-4);
      }

      .cls-6 {
        isolation: isolate;
      }

      .cls-3 {
        fill: url(#linear-gradient-6);
      }

      .cls-4 {
        fill: url(#linear-gradient-5);
        opacity: .5;
      }

      .cls-7 {
        fill: url(#linear-gradient);
      }
    </style>
    <linearGradient id="linear-gradient" x1="386.47" y1="84.88" x2="424.59" y2="329.47" gradientUnits="userSpaceOnUse">
      <stop offset="0" stop-color="#ffb70d"/>
      <stop offset=".51" stop-color="#f95645"/>
      <stop offset="1" stop-color="#ce195e"/>
    </linearGradient>
    <linearGradient id="linear-gradient-2" x1="196.27" y1="114.52" x2="234.39" y2="359.11" xlink:href="#linear-gradient"/>
    <linearGradient id="linear-gradient-3" x1="368.95" y1="243.49" x2="431.94" y2="223.47" gradientUnits="userSpaceOnUse">
      <stop offset="0" stop-color="#fff" stop-opacity="0"/>
      <stop offset="1" stop-color="#231f20"/>
    </linearGradient>
    <linearGradient id="linear-gradient-4" x1="430.16" y1="187.6" x2="394.72" y2="201.17" xlink:href="#linear-gradient-3"/>
    <linearGradient id="linear-gradient-5" x1="144.34" y1="270.1" x2="205.04" y2="246.6" gradientUnits="userSpaceOnUse">
      <stop offset="0" stop-color="#231f20"/>
      <stop offset="1" stop-color="#fff" stop-opacity="0"/>
    </linearGradient>
    <linearGradient id="linear-gradient-6" x1="297.29" y1="65.14" x2="234.39" y2="199.55" xlink:href="#linear-gradient-5"/>
  </defs>
  <g class="cls-6">
    <g id="Layer_1" data-name="Layer 1">
      <g>
        <path d="M604.38,154.01c0-39.07-14.78-78.12-44.35-108.11-59.89-60.76-160.14-59.2-220.47,1.11l-27.94,27.94c-5.22,5.22-13.69,5.22-18.91,0l-29.83-29.85c-60.13-60.13-157.65-60.13-217.77,0C15.02,75.17,0,114.58,0,154.01s14.84,78.33,44.56,108.32l111.49,111.52,118.03,118.06c15.53,15.5,40.66,15.5,56.17,0l189.7-189.73,39.28-39.28c8.07-8.07,14.99-16.85,20.89-26.09,.04-.04,.1-.07,.14-.12,.69-1.05,1.64-2.65,2.76-4.63,.48-.81,1.01-1.59,1.46-2.41-.07,.05-.15,.1-.22,.15,2.81-5.18,6.26-12.12,9.1-18.79,.04-.02,.08-.05,.12-.07,.26-.65,.48-1.32,.73-1.97,.16-.4,.33-.81,.49-1.21h-.05c6.42-17.29,9.71-35.51,9.71-53.74Z"/>
        <g>
          <g>
            <g>
              <path class="cls-7" d="M538.48,184.09h-.03c-.93,.12-1.7,.72-2.36,1.34-2.99,2.9-47.67,73.92-56.78,47.58-1.49-4.3-2.48-9.2-3.41-13.65-1.02-4.87-2.03-9.77-3.17-14.64-2.39-10.1-4.9-20.16-8.84-29.78-2.18-5.29-4.57-10.51-8.63-14.72-4.63-4.81-10.45-6.36-16.43-3.97-2.36,.96-4.81,2.12-6.75,3.73-2.72,2.24-5.38,4.57-7.97,6.96-1.52,1.4-2.99,2.81-4.45,4.27-3.35,3.34-6.27,7.11-9.5,10.84-.33-.84-.66-1.64-.99-2.45-.06-.12-.09-.27-.15-.39-.9-2.3-1.76-4.54-2.69-6.75-2.75-6.42-6.06-12.48-10.93-17.62-4.99-5.32-11.02-7.71-18.28-7.5-5.67,.18-10.6,2.36-15.35,5.11-6.54,3.76-12.25,8.54-17.68,13.8-13.59,13.17-25.12,27.99-34.98,44.12-6.24,10.21-12.22,20.64-17.05,31.66-4.87,11.17-9.26,22.43-11.53,34.44-2.66,14.16,.72,31.3,14.13,38.89,4.72,2.72,10.33,4.03,15.62,3.58,6.18-.57,11.86-3.58,15.11-9.83,3.14-6,4.12-12.31,4.27-18.91,.18-7.35-.27-14.81,.87-22.01,1.52-9.68,3.82-19.26,6.6-28.67,4.39-14.78,9.95-29.18,18.73-42.05,3.23-4.78,6.87-9.17,11.59-12.57,3.08-2.21,7.08-3.94,10.6-1.67,3.67,2.33,5.26,6.78,6.39,10.78,.48,1.73,2.06,6.69,3.32,11.05h.03c.09,.33,.18,.66,.27,.96,.21,.66,.39,1.28,.54,1.88,0,.03-.03,.03-.03,.06-7.97,11.92-17.29,28.97-22.1,41.91-.54,1.46-1.05,2.93-1.49,4.39-1.55,4.9-2.63,9.92-2.69,15.14-.15,10.63,2.72,20.16,10.39,27.96,11.32,11.47,31.27,12.75,43.88,1.52,9.2-8.21,12.1-18.85,11.59-30.67-.57-13.2-4.9-34.2-8.21-49.49-.3-1.28-.57-2.57-.84-3.76,.03-.06,.09-.12,.12-.18,3.85-5.35,10.42-13.02,13.29-15.71,.72-.69,1.58-1.4,2.54-1.88,1.08-.57,2.24-.81,3.43-.39,2.66,.96,3.64,4.39,4.45,6.75,3.82,10.84,5.88,22.16,8.3,33.36,1.88,8.48,4.9,16.64,8.03,24.7,1.88,4.9,3.91,9.89,7.38,13.8,1.52,1.76,3.41,3.31,5.65,3.88,6.24,1.58,13.41-3.73,17.65-7.74,4.96-4.69,8.81-10.36,12.72-15.92,12.96-18.4,25.21-37.34,34.62-57.82,.42-.9,.84-1.82,1.22-2.75,1.14-2.54,2.51-5.82,2.36-8.69-.06-1.34-.96-2.45-2.39-2.27Zm-139.46,92.83c-.84,1.31-2.12,2.15-3.94,2.03-3.55-.27-4.63-4.6-4.9-7.5-.18-1.82-.09-3.64,.18-5.47,.3-1.97,.81-3.94,1.4-5.79,.24-.75,.57-1.55,.96-2.45,.21-.48,.42-.99,.69-1.46,1.79-4,4.21-8.36,4.27-8.48l.09,.54c.21,1.16,.45,3.08,.75,5.14v.03c.36,2.66,.78,5.53,1.08,7.47,.33,1.97,.6,3.97,.87,5.94,.33,2.51,.33,7.26-1.43,10.01Z"/>
              <path class="cls-5" d="M297.62,163.72c-.56-24.73-10.33-47.21-27.5-63.31-15-14.07-33.15-21.21-53.96-21.21-5.6,0-11.48,.52-17.47,1.55-26.58,4.58-47.7,18.68-62.81,41.91-17.41,26.79-23.68,60.43-17.98,95.63,.5,3.12,1.11,6.27,1.8,9.43,2.18,9.86,5.29,19.68,9.24,29.18,12.9,31.05,34.06,59.37,64.7,86.62,5.1,4.58,12.93,4.32,17.78-.52h0c9.2-9.18,9.36-24.04,.34-33.4-11.3-11.73-24.8-25.94-27.5-29.66-16.02-22-34.44-56.65-31.21-96.69,0-.04,.01-.08,.01-.12,1.29-15.72,6.74-37.74,25.36-53.62,10.73-9.14,22.49-13.78,34.94-13.78,5.85,0,11.88,1.03,17.93,3.08,11.36,3.84,20.38,12.75,25.4,25.08,6.18,15.2,5.6,33.3-1.53,47.25-4.06,7.94-10.56,15.37-19.32,22.09-12.1,9.27-26.43,15.01-40.71,19.99-4.62,1.61-30.5,8.84-39.19,9.37,5.47,13.27,17.94,22.77,24.29,31.6,18.65-4.48,49.71-14.05,63.9-22.31,23.25-13.51,40.43-33.43,48.39-56.08,3.62-10.31,5.34-21.09,5.09-32.07Z"/>
            </g>
            <path class="cls-1" d="M397.68,247.8c-.06,.12-2.48,4.48-4.27,8.48-.27,.48-.48,.99-.69,1.46-.39,.9-.72,1.7-.96,2.45-.6,1.85-1.11,3.82-1.4,5.79l-25.39-11.74c.45-1.46,.96-2.93,1.49-4.39,4.81-12.93,14.13-29.99,22.1-41.91,5.53,21.45,8,33.69,9.11,39.84Z"/>
            <path class="cls-2" d="M435.05,197.17c-.96,.48-1.82,1.2-2.54,1.88-2.87,2.69-9.44,10.36-13.29,15.71-1.19-6.24-4.15-19.41-10.04-35.16,.33,.81,.66,1.61,.99,2.45,3.23-3.73,6.15-7.5,9.5-10.84,1.46-1.46,2.93-2.87,4.45-4.27l10.93,30.23Z"/>
          </g>
          <path class="cls-4" d="M216.68,263.48c-12.69,4.36-26.37,8.27-36.44,10.69-6.24-9.23-12.54-20.25-17.5-32.59,5.7-1.08,13.05-2.9,19.35-4.6,6.09-1.61,11.2-3.14,13.05-3.76,3.49-1.23,7.02-2.48,10.51-3.85l2.45,7.62,8.57,26.49Z"/>
          <path class="cls-3" d="M280.58,139.6c14.08,14.84,18.71,36.62,12.02,55.96-.03,.08-.05,.15-.08,.23-3.64,10.36-9.2,20.13-16.43,28.97l-35.01-15.89c6.15-5.53,10.9-11.47,14.1-17.74,7.11-13.95,7.71-32.05,1.52-47.25-5.02-12.34-14.04-21.24-25.39-25.09-4.93-1.64-9.82-3.06-14.64-2.93,30.73-.83,51.23,10.39,63.89,23.74Z"/>
        </g>
      </g>
    </g>
  </g>
</svg>