<?xml version="1.0" encoding="UTF-8"?>
<svg xmlns="http://www.w3.org/2000/svg" xmlns:xlink="http://www.w3.org/1999/xlink" viewBox="0 0 978.07 1198.44">
  <defs>
    <style>
      .cls-1 {
        fill: url(#linear-gradient-7);
        opacity: .5;
      }

      .cls-1, .cls-2, .cls-3, .cls-4, .cls-5, .cls-6, .cls-7 {
        mix-blend-mode: multiply;
      }

      .cls-8 {
        fill: #fff;
      }

      .cls-2 {
        fill: url(#linear-gradient-9);
      }

      .cls-2, .cls-6 {
        opacity: .3;
      }

      .cls-9 {
        isolation: isolate;
      }

      .cls-3 {
        fill: url(#linear-gradient-6);
      }

      .cls-4 {
        fill: url(#linear-gradient-5);
      }

      .cls-5 {
        fill: url(#linear-gradient-8);
      }

      .cls-6 {
        fill: url(#linear-gradient-10);
      }

      .cls-10 {
        fill: url(#linear-gradient-3);
      }

      .cls-11 {
        fill: url(#linear-gradient);
      }

      .cls-7 {
        fill: url(#linear-gradient-2);
        opacity: .25;
      }

      .cls-12 {
        fill: url(#linear-gradient-4);
      }
    </style>
    <linearGradient id="linear-gradient" x1="735.33" y1="35.13" x2="294.86" y2="1653.01" gradientUnits="userSpaceOnUse">
      <stop offset="0" stop-color="#ffb70d"/>
      <stop offset=".03" stop-color="#feae12"/>
      <stop offset=".24" stop-color="#fb7e2d"/>
      <stop offset=".39" stop-color="#f9613e"/>
      <stop offset=".48" stop-color="#f95645"/>
      <stop offset="1" stop-color="#ce195e"/>
    </linearGradient>
    <linearGradient id="linear-gradient-2" x1="536.06" y1="449.92" x2="460.37" y2="1081.95" gradientUnits="userSpaceOnUse">
      <stop offset="0" stop-color="#ffb70d"/>
      <stop offset=".51" stop-color="#f95645"/>
      <stop offset="1" stop-color="#ce195e"/>
    </linearGradient>
    <linearGradient id="linear-gradient-3" x1="607.79" y1="535.76" x2="580.22" y2="817.8" xlink:href="#linear-gradient-2"/>
    <linearGradient id="linear-gradient-4" x1="399.47" y1="515.42" x2="371.9" y2="797.43" xlink:href="#linear-gradient-2"/>
    <linearGradient id="linear-gradient-5" x1="549.47" y1="715.45" x2="612.82" y2="695.31" gradientUnits="userSpaceOnUse">
      <stop offset="0" stop-color="#fff" stop-opacity="0"/>
      <stop offset="1" stop-color="#231f20"/>
    </linearGradient>
    <linearGradient id="linear-gradient-6" x1="611.03" y1="659.24" x2="575.38" y2="672.89" xlink:href="#linear-gradient-5"/>
    <linearGradient id="linear-gradient-7" x1="323.58" y1="742.21" x2="384.62" y2="718.57" gradientUnits="userSpaceOnUse">
      <stop offset="0" stop-color="#231f20"/>
      <stop offset="1" stop-color="#fff" stop-opacity="0"/>
    </linearGradient>
    <linearGradient id="linear-gradient-8" x1="477.4" y1="536.07" x2="414.14" y2="671.25" xlink:href="#linear-gradient-7"/>
    <linearGradient id="linear-gradient-9" x1="313.3" y1="148.42" x2="303.72" y2="241.13" gradientUnits="userSpaceOnUse">
      <stop offset="0" stop-color="#fff"/>
      <stop offset="1" stop-color="#231f20"/>
    </linearGradient>
    <linearGradient id="linear-gradient-10" x1="688.47" y1="149.58" x2="679.22" y2="239.19" xlink:href="#linear-gradient-9"/>
  </defs>
  <g class="cls-9">
    <g id="Layer_1" data-name="Layer 1">
      <g>
        <path class="cls-11" d="M977.24,1092.72c-10.08-75.62-67.78-441.81-78.7-517.31-11.96-82.68-24.32-165.28-36.21-247.96-3.35-22.96-10.06-44.39-24.62-62.85-21.5-27.31-52.61-43-86.89-46.48-2.65-.26-10.53-1.69-29.43-2.1-.46-.01-.93-.02-1.4-.03-1.94-.03-3.98-.06-6.14-.07-1.02-.01-2.06-.01-3.13-.01-.34-7.9-1.04-15.61-1.99-23.17-2.02-15.75-5.38-30.78-10.17-45.08-.36-1.07-.73-2.14-1.1-3.2-10.88-31-28.59-58.64-54.04-83.11C599.85,19.41,547.35-.67,487.04,.02c-47.8,.55-91.22,15.24-129.08,44.36-27.69,21.29-48.42,46.26-62.75,74.74-4.77,8.41-8.9,18.22-12.46,28.57-7.94,23.1-13.09,48.96-16.17,68.33h-8.38c-6.52,0-13.12,0-19.74,.02h-.04c-52.11,5.6-99.63,38.08-114.13,89.36-2.93,10.27-4.86,20.77-6.36,31.33C98.34,474.19,26.86,902.25,7.08,1039.68,3.76,1062.91-.08,1086.35,0,1109.67c.15,28.83,14.61,55.88,38.21,72.34,29.66,20.67,66.54,16.02,100.67,15.91,39.95-.11,80.05-.17,120.1-.15,22.45,.02,44.92,.07,67.39,.04,65.24-.06,528.6,.57,558.56,.57,58.42,.45,99.54-51.3,92.31-105.66ZM596.09,224.46l-97.15,92.79c-4.32,4.56-11.55,4.52-15.85-.09l-95.04-92.48c-4.13-5.47-10.56-8.69-17.37-8.69h-44.29c-.41,0,6.71-33.6,7.47-36.34,2.97-10.55,6.23-21.06,10.5-31.09,3.78-8.96,8.36-17.56,14.22-25.49,11.79-15.95,26.77-29.3,43.43-40.01,58.53-37.53,119.55-37.03,177.97,.2,25.41,16.17,43.95,36.73,56.17,61.2,.26,.51,.51,1.02,.76,1.54,6.97,14.3,11.8,29.92,14.59,46.74,1.11,6.6,1.92,13.39,2.39,20.36,.06,.93,.12,1.87,.17,2.81v.08h-40.75c-6.75,0-13.09,3.15-17.22,8.47Z"/>
        <g>
          <path class="cls-7" d="M799.66,664.49c0-37.41-14.15-74.78-42.46-103.49-57.33-58.16-153.3-56.67-211.06,1.06l-35.8,35.8-37.61-37.64c-57.56-57.56-150.92-57.56-208.48,0-28.79,28.79-43.18,66.52-43.18,104.27s14.21,74.98,42.66,103.69l106.74,106.76,112.99,113.02c14.87,14.84,38.93,14.84,53.77,0l181.61-181.63,37.61-37.61c7.73-7.73,14.35-16.13,20-24.98,.04-.04,.1-.07,.13-.12,.66-1,1.57-2.53,2.64-4.44,.45-.77,.96-1.52,1.4-2.3-.07,.05-.14,.09-.21,.14,2.69-4.96,6-11.6,8.71-17.99,.04-.02,.08-.05,.12-.07,.25-.62,.46-1.26,.7-1.89,.16-.39,.32-.78,.47-1.16h-.05c6.15-16.55,9.3-33.99,9.3-51.44Z"/>
          <g>
            <path class="cls-8" d="M786.24,625.45c0-39.3-14.87-78.57-44.61-108.73-60.23-61.1-161.05-59.53-221.73,1.12l-28.1,28.1c-5.25,5.25-13.77,5.25-19.02,0l-30-30.02c-60.47-60.47-158.55-60.47-219.02,0-30.25,30.25-45.36,69.88-45.36,109.54s14.93,78.78,44.82,108.94l112.13,112.16,118.71,118.74c15.62,15.59,40.9,15.59,56.49,0l190.79-190.82,39.51-39.51c8.12-8.12,15.08-16.95,21.01-26.24,.04-.04,.1-.07,.14-.12,.69-1.05,1.65-2.66,2.77-4.66,.48-.81,1.01-1.6,1.47-2.42-.08,.05-.15,.1-.22,.15,2.83-5.21,6.3-12.18,9.15-18.89,.04-.02,.08-.05,.12-.07,.26-.66,.48-1.32,.73-1.98,.17-.41,.34-.82,.49-1.22h-.05c6.46-17.39,9.77-35.71,9.77-54.04Z"/>
            <g>
              <g>
                <g>
                  <path class="cls-10" d="M719.97,655.7h-.03c-.93,.12-1.71,.72-2.37,1.35-3,2.91-47.94,74.35-57.1,47.85-1.5-4.33-2.49-9.25-3.42-13.73-1.02-4.9-2.04-9.82-3.18-14.72-2.4-10.15-4.93-20.28-8.89-29.95-2.19-5.32-4.6-10.57-8.68-14.81-4.66-4.84-10.51-6.4-16.52-4-2.37,.96-4.84,2.13-6.79,3.75-2.73,2.25-5.41,4.6-8.02,7-1.53,1.41-3,2.82-4.48,4.3-3.36,3.36-6.31,7.15-9.55,10.9-.33-.84-.66-1.65-.99-2.46-.06-.12-.09-.27-.15-.39-.9-2.31-1.77-4.57-2.7-6.79-2.76-6.46-6.1-12.56-10.99-17.72-5.02-5.35-11.08-7.75-18.38-7.54-5.71,.18-10.66,2.37-15.44,5.14-6.58,3.78-12.32,8.59-17.78,13.88-13.67,13.25-25.26,28.15-35.18,44.37-6.28,10.27-12.29,20.76-17.15,31.84-4.9,11.23-9.31,22.56-11.6,34.64-2.67,14.24,.72,31.48,14.21,39.11,4.75,2.73,10.39,4.06,15.71,3.6,6.22-.57,11.93-3.6,15.2-9.88,3.15-6.04,4.15-12.38,4.3-19.01,.18-7.39-.27-14.9,.87-22.14,1.53-9.73,3.84-19.38,6.64-28.84,4.42-14.87,10-29.35,18.83-42.29,3.24-4.81,6.91-9.22,11.66-12.65,3.09-2.22,7.12-3.97,10.66-1.68,3.69,2.34,5.29,6.82,6.43,10.84,.48,1.74,2.07,6.73,3.33,11.11h.03c.09,.33,.18,.66,.27,.96,.21,.66,.39,1.29,.54,1.89,0,.03-.03,.03-.03,.06-8.02,11.99-17.39,29.14-22.23,42.15-.54,1.47-1.05,2.94-1.5,4.42-1.56,4.93-2.64,9.97-2.7,15.23-.15,10.69,2.73,20.28,10.45,28.12,11.39,11.54,31.45,12.83,44.13,1.53,9.25-8.26,12.17-18.95,11.66-30.85-.57-13.28-4.93-34.39-8.26-49.77-.3-1.29-.57-2.58-.84-3.79,.03-.06,.09-.12,.12-.18,3.88-5.38,10.48-13.1,13.37-15.8,.72-.69,1.59-1.41,2.55-1.89,1.08-.57,2.25-.81,3.45-.39,2.67,.96,3.66,4.42,4.48,6.79,3.84,10.9,5.92,22.29,8.35,33.55,1.89,8.53,4.93,16.73,8.08,24.84,1.89,4.93,3.94,9.94,7.42,13.88,1.53,1.77,3.42,3.33,5.68,3.9,6.28,1.59,13.49-3.75,17.75-7.78,4.99-4.72,8.86-10.42,12.8-16.01,13.04-18.5,25.35-37.55,34.82-58.16,.42-.9,.84-1.83,1.23-2.76,1.14-2.55,2.52-5.86,2.37-8.74-.06-1.35-.96-2.46-2.4-2.28Zm-140.25,93.36c-.84,1.32-2.13,2.16-3.97,2.04-3.57-.27-4.66-4.63-4.93-7.54-.18-1.83-.09-3.66,.18-5.5,.3-1.98,.81-3.97,1.41-5.83,.24-.75,.57-1.56,.96-2.46,.21-.48,.42-.99,.69-1.47,1.8-4.03,4.24-8.41,4.3-8.53l.09,.54c.21,1.17,.45,3.09,.75,5.17v.03c.36,2.67,.78,5.56,1.08,7.51,.33,1.98,.6,4,.87,5.98,.33,2.52,.33,7.3-1.44,10.06Z"/>
                  <path class="cls-12" d="M477.72,635.22c-.57-24.88-10.39-47.48-27.66-63.67-15.09-14.15-33.34-21.33-54.27-21.33-5.63,0-11.54,.52-17.57,1.56-26.73,4.6-47.97,18.79-63.17,42.15-17.51,26.95-23.82,60.78-18.08,96.17,.5,3.14,1.11,6.31,1.81,9.48,2.19,9.92,5.32,19.79,9.3,29.35,12.97,31.22,34.26,59.71,65.07,87.11,5.13,4.6,13,4.34,17.88-.53h0c9.26-9.23,9.41-24.17,.35-33.59-11.37-11.8-24.94-26.09-27.66-29.83-16.11-22.13-34.64-56.97-31.39-97.24,0-.04,.01-.08,.01-.12,1.3-15.81,6.78-37.96,25.51-53.93,10.79-9.2,22.62-13.86,35.14-13.86,5.88,0,11.95,1.04,18.03,3.1,11.42,3.86,20.5,12.82,25.54,25.22,6.22,15.29,5.63,33.49-1.54,47.52-4.08,7.99-10.62,15.46-19.43,22.21-12.17,9.32-26.58,15.09-40.94,20.1-4.64,1.62-30.67,8.89-39.42,9.42,5.5,13.34,18.04,22.9,24.42,31.78,18.75-4.51,50-14.13,64.27-22.44,23.38-13.58,40.66-33.62,48.67-56.41,3.64-10.36,5.37-21.21,5.12-32.25Z"/>
                </g>
                <path class="cls-4" d="M578.36,719.78c-.06,.12-2.49,4.51-4.3,8.53-.27,.48-.48,.99-.69,1.47-.39,.9-.72,1.71-.96,2.46-.6,1.86-1.11,3.85-1.41,5.83l-25.53-11.81c.45-1.47,.96-2.94,1.5-4.42,4.84-13.01,14.21-30.16,22.23-42.15,5.56,21.57,8.05,33.88,9.16,40.07Z"/>
                <path class="cls-3" d="M615.94,668.86c-.96,.48-1.83,1.2-2.55,1.89-2.88,2.7-9.49,10.42-13.37,15.8-1.2-6.28-4.18-19.53-10.09-35.36,.33,.81,.66,1.62,.99,2.46,3.24-3.75,6.19-7.54,9.55-10.9,1.47-1.47,2.94-2.88,4.48-4.3l10.99,30.4Z"/>
              </g>
              <path class="cls-1" d="M396.32,735.55c-12.77,4.39-26.52,8.32-36.65,10.75-6.28-9.28-12.62-20.37-17.6-32.77,5.74-1.08,13.13-2.91,19.47-4.63,6.13-1.62,11.26-3.15,13.13-3.78,3.51-1.23,7.06-2.49,10.57-3.88l2.46,7.66,8.62,26.64Z"/>
              <path class="cls-5" d="M460.59,610.96c14.16,14.93,18.82,36.83,12.09,56.28-.03,.08-.05,.15-.08,.23-3.66,10.42-9.25,20.25-16.52,29.14l-35.21-15.98c6.19-5.56,10.96-11.54,14.18-17.84,7.15-14.03,7.75-32.23,1.53-47.52-5.05-12.41-14.12-21.36-25.53-25.23-4.96-1.65-9.88-3.08-14.72-2.94,30.91-.84,51.52,10.45,64.26,23.88Z"/>
            </g>
          </g>
        </g>
        <path class="cls-2" d="M346.06,215.99v.02h-79.48c3.08-19.37,8.23-45.22,16.17-68.32l61.61,.87c-4.28,10.03-7.53,20.54-10.51,31.09-.76,2.74-7.88,36.34-7.47,36.34h19.67Z"/>
        <path class="cls-6" d="M733.54,215.99v.03h-79.48v-.03c.15-.94,.09-1.9-.17-2.89-.47-6.97-1.28-13.76-2.39-20.36-2.79-16.82-7.62-32.44-14.59-46.74l61.65,1.66c4.79,14.3,8.15,29.33,10.17,45.08,.95,7.56,1.65,15.27,1.99,23.17,1.07,0,2.11,0,3.13,.01,0,.04,.01,.07,.02,.07h19.67Z"/>
      </g>
    </g>
  </g>
</svg>