<?xml version="1.0" encoding="UTF-8"?>
<svg xmlns="http://www.w3.org/2000/svg" xmlns:xlink="http://www.w3.org/1999/xlink" viewBox="0 0 639.29 402.48">
  <defs>
    <style>
      .cls-1 {
        fill: url(#linear-gradient-3);
      }

      .cls-1, .cls-2, .cls-3, .cls-4 {
        mix-blend-mode: multiply;
      }

      .cls-5 {
        fill: url(#linear-gradient-2);
      }

      .cls-2 {
        fill: url(#linear-gradient-4);
      }

      .cls-6 {
        isolation: isolate;
      }

      .cls-3 {
        fill: url(#linear-gradient-6);
      }

      .cls-4 {
        fill: url(#linear-gradient-5);
        opacity: .5;
      }

      .cls-7 {
        fill: url(#linear-gradient);
      }
    </style>
    <linearGradient id="linear-gradient" x1="515.33" y1="92.49" x2="295.55" y2="489.58" gradientUnits="userSpaceOnUse">
      <stop offset="0" stop-color="#ffb70d"/>
      <stop offset=".51" stop-color="#f95645"/>
      <stop offset="1" stop-color="#ce195e"/>
    </linearGradient>
    <linearGradient id="linear-gradient-2" x1="246.55" y1="-56.28" x2="26.77" y2="340.81" xlink:href="#linear-gradient"/>
    <linearGradient id="linear-gradient-3" x1="380.69" y1="247.12" x2="475.43" y2="216.99" gradientUnits="userSpaceOnUse">
      <stop offset="0" stop-color="#fff" stop-opacity="0"/>
      <stop offset="1" stop-color="#231f20"/>
    </linearGradient>
    <linearGradient id="linear-gradient-4" x1="472.76" y1="163.05" x2="419.44" y2="183.46" xlink:href="#linear-gradient-3"/>
    <linearGradient id="linear-gradient-5" x1="42.85" y1="287.14" x2="134.14" y2="251.78" gradientUnits="userSpaceOnUse">
      <stop offset="0" stop-color="#231f20"/>
      <stop offset="1" stop-color="#fff" stop-opacity="0"/>
    </linearGradient>
    <linearGradient id="linear-gradient-6" x1="272.9" y1="-21.15" x2="178.29" y2="181.02" xlink:href="#linear-gradient-5"/>
  </defs>
  <g class="cls-6">
    <g id="Layer_1" data-name="Layer 1">
      <g>
        <g>
          <g>
            <path class="cls-7" d="M635.68,157.77h-.04c-1.39,.18-2.56,1.08-3.55,2.02-4.49,4.36-71.7,111.19-85.4,71.57-2.25-6.47-3.73-13.84-5.12-20.53-1.53-7.32-3.05-14.69-4.76-22.01-3.59-15.18-7.37-30.32-13.3-44.79-3.28-7.95-6.87-15.81-12.98-22.15-6.96-7.23-15.72-9.57-24.71-5.98-3.55,1.44-7.23,3.19-10.15,5.62-4.09,3.37-8.09,6.87-12,10.47-2.29,2.11-4.49,4.22-6.69,6.42-5.03,5.03-9.43,10.69-14.29,16.31-.49-1.26-.99-2.47-1.48-3.68-.09-.18-.13-.4-.22-.58-1.35-3.46-2.65-6.83-4.04-10.15-4.13-9.66-9.12-18.78-16.44-26.51-7.5-8-16.58-11.59-27.49-11.28-8.54,.27-15.95,3.55-23.09,7.68-9.84,5.66-18.42,12.85-26.6,20.76-20.44,19.81-37.78,42.09-52.61,66.36-9.39,15.36-18.37,31.04-25.65,47.62-7.32,16.8-13.93,33.74-17.34,51.8-4,21.29,1.08,47.08,21.25,58.49,7.1,4.09,15.54,6.07,23.5,5.39,9.3-.85,17.84-5.39,22.73-14.78,4.72-9.03,6.2-18.51,6.42-28.44,.27-11.05-.4-22.28,1.3-33.11,2.29-14.56,5.75-28.98,9.93-43.13,6.6-22.24,14.96-43.89,28.17-63.25,4.85-7.19,10.33-13.79,17.43-18.91,4.63-3.32,10.65-5.93,15.95-2.52,5.53,3.5,7.91,10.2,9.61,16.22,.72,2.6,3.1,10.06,4.99,16.62h.04c.13,.49,.27,.99,.4,1.44,.31,.99,.58,1.93,.81,2.83,0,.04-.04,.04-.04,.09-12,17.93-26.01,43.58-33.25,63.03-.81,2.2-1.57,4.4-2.25,6.6-2.34,7.37-3.95,14.91-4.04,22.78-.22,15.99,4.09,30.32,15.63,42.05,17.03,17.25,47.04,19.18,66,2.29,13.84-12.35,18.19-28.35,17.43-46.14-.85-19.86-7.37-51.44-12.35-74.44-.45-1.93-.85-3.86-1.26-5.66,.04-.09,.13-.18,.18-.27,5.8-8.04,15.68-19.59,19.99-23.63,1.08-1.03,2.38-2.11,3.82-2.83,1.62-.85,3.37-1.21,5.17-.58,4,1.44,5.48,6.6,6.69,10.15,5.75,16.31,8.85,33.33,12.49,50.18,2.83,12.76,7.37,25.02,12.09,37.15,2.83,7.37,5.89,14.87,11.1,20.76,2.29,2.65,5.12,4.99,8.49,5.84,9.39,2.38,20.17-5.62,26.55-11.64,7.46-7.05,13.25-15.59,19.14-23.95,19.5-27.68,37.92-56.16,52.07-86.98,.63-1.35,1.26-2.74,1.84-4.13,1.71-3.82,3.77-8.76,3.55-13.07-.09-2.02-1.44-3.68-3.59-3.41Zm-209.76,139.63c-1.26,1.98-3.19,3.24-5.93,3.06-5.35-.4-6.96-6.92-7.37-11.28-.27-2.74-.13-5.48,.27-8.22,.45-2.96,1.21-5.93,2.11-8.72,.36-1.12,.85-2.34,1.44-3.68,.31-.72,.63-1.48,1.03-2.2,2.7-6.02,6.33-12.58,6.42-12.76l.13,.81c.31,1.75,.67,4.63,1.12,7.73v.04c.54,4,1.17,8.31,1.62,11.23,.49,2.96,.9,5.98,1.3,8.94,.49,3.77,.49,10.92-2.16,15.05Z"/>
            <path class="cls-5" d="M273.39,127.12c-.85-37.2-15.53-71.01-41.36-95.22C209.46,10.74,182.16,0,150.87,0c-8.42,0-17.26,.78-26.27,2.33C84.62,9.22,52.85,30.43,30.12,65.37,3.93,105.67-5.5,156.27,3.08,209.2c.75,4.7,1.66,9.43,2.71,14.18,3.28,14.83,7.96,29.6,13.9,43.89,19.4,46.7,51.23,89.3,97.31,130.28,7.68,6.88,19.44,6.49,26.74-.79h0c13.84-13.81,14.08-36.15,.52-50.23-17-17.65-37.3-39.01-41.37-44.61-24.1-33.09-51.81-85.21-46.94-145.43,0-.07,.02-.11,.02-.18,1.94-23.64,10.13-56.77,38.15-80.65,16.14-13.75,33.82-20.72,52.56-20.72,8.79,0,17.87,1.55,26.97,4.63,17.08,5.78,30.66,19.17,38.2,37.72,9.3,22.86,8.42,50.09-2.3,71.08-6.1,11.94-15.88,23.12-29.06,33.22-18.2,13.94-39.75,22.58-61.23,30.06-6.94,2.42-45.87,13.3-58.95,14.09,8.22,19.96,26.98,34.25,36.53,47.53,28.05-6.74,74.78-21.14,96.12-33.56,34.97-20.31,60.81-50.29,72.79-84.36,5.45-15.5,8.03-31.72,7.65-48.23Z"/>
          </g>
          <path class="cls-1" d="M423.9,253.59c-.09,.18-3.73,6.74-6.42,12.76-.4,.72-.72,1.48-1.03,2.2-.58,1.35-1.08,2.56-1.44,3.68-.9,2.78-1.66,5.75-2.11,8.72l-38.19-17.66c.67-2.2,1.44-4.4,2.25-6.6,7.23-19.45,21.25-45.11,33.25-63.03,8.31,32.26,12.04,50.68,13.7,59.93Z"/>
          <path class="cls-2" d="M480.1,177.44c-1.44,.72-2.74,1.8-3.82,2.83-4.31,4.04-14.2,15.59-19.99,23.63-1.8-9.39-6.24-29.2-15.1-52.88,.49,1.21,.99,2.43,1.48,3.68,4.85-5.62,9.25-11.28,14.29-16.31,2.2-2.2,4.4-4.31,6.69-6.42l16.44,45.46Z"/>
        </g>
        <path class="cls-4" d="M151.65,277.18c-19.09,6.56-39.67,12.44-54.81,16.08-9.39-13.88-18.87-30.46-26.33-49.01,8.58-1.62,19.63-4.36,29.11-6.92,9.16-2.43,16.85-4.72,19.63-5.66,5.26-1.84,10.56-3.73,15.81-5.8l3.68,11.46,12.89,39.85Z"/>
        <path class="cls-3" d="M247.77,90.85c21.18,22.32,28.15,55.08,18.08,84.17-.04,.11-.08,.23-.12,.34-5.48,15.59-13.84,30.28-24.71,43.58l-52.65-23.9c9.25-8.31,16.4-17.25,21.21-26.69,10.69-20.98,11.59-48.21,2.29-71.07-7.55-18.55-21.11-31.94-38.19-37.74-7.41-2.47-14.77-4.6-22.01-4.4,46.22-1.25,77.05,15.63,96.11,35.71Z"/>
      </g>
    </g>
  </g>
</svg>